<svg xmlns="http://www.w3.org/2000/svg" xmlns:xlink="http://www.w3.org/1999/xlink" version="1.1" x="0px" y="0px" viewBox="0 0 100 125" enable-background="new 0 0 100 100" xml:space="preserve"><g><path fill="#000000" d="M57.097,58.68c-0.004-0.003-0.005-0.006-0.008-0.009c-3.914-3.905-10.277-3.901-14.187,0.009   c-3.914,3.913-3.912,10.281,0,14.194c3.913,3.913,10.28,3.913,14.194-0.001c3.91-3.91,3.913-10.271,0.009-14.185   C57.103,58.686,57.099,58.684,57.097,58.68z"/><path fill="#000000" d="M50,4.05C24.622,4.05,4.05,24.623,4.05,50S24.622,95.951,50,95.951c25.378,0,45.95-20.573,45.95-45.951   S75.378,4.05,50,4.05z M68.267,63.959c0.521,5.289-1.236,10.763-5.278,14.805c-7.161,7.162-18.815,7.162-25.977,0.002   c-4.042-4.044-5.801-9.518-5.278-14.807c-5.29,0.521-10.764-1.236-14.807-5.279c-7.161-7.161-7.161-18.814,0.001-25.976   c7.16-7.161,18.812-7.161,25.974,0.001c4.043,4.043,10.152,4.043,14.195-0.001c7.161-7.161,18.813-7.161,25.975,0.001   c7.162,7.161,7.163,18.813,0,25.975C79.03,62.723,73.555,64.48,68.267,63.959z"/></g><path fill="#000000" d="M77.183,38.595c-3.914-3.914-10.282-3.915-14.195-0.001c-3.914,3.915-3.914,10.282,0,14.195  c3.913,3.913,10.28,3.914,14.193,0C81.095,48.875,81.095,42.507,77.183,38.595z M69.644,50.455c-2.691,0-4.871-2.181-4.871-4.871  s2.18-4.872,4.871-4.872c2.69,0,4.872,2.181,4.872,4.872S72.335,50.455,69.644,50.455z"/><path fill="#000000" d="M37.013,38.593c-3.913-3.913-10.283-3.912-14.195,0c-3.915,3.914-3.913,10.283,0.001,14.196  c3.913,3.913,10.28,3.913,14.194,0C40.926,48.876,40.927,42.507,37.013,38.593z M29.638,50.455c-2.691,0-4.871-2.181-4.871-4.871  s2.18-4.872,4.871-4.872c2.69,0,4.872,2.181,4.872,4.872S32.328,50.455,29.638,50.455z"/><text x="0" y="115" fill="#000000" font-size="5px" font-weight="bold" font-family="'Helvetica Neue', Helvetica, Arial-Unicode, Arial, Sans-serif">Created by Jaime Serra</text><text x="0" y="120" fill="#000000" font-size="5px" font-weight="bold" font-family="'Helvetica Neue', Helvetica, Arial-Unicode, Arial, Sans-serif">from the Noun Project</text></svg>